<svg height="512pt" viewBox="-19 0 511 512" width="512pt" xmlns="http://www.w3.org/2000/svg"><g fill-rule="evenodd"><path d="m237.480469 212.886719c-23.796875 0-43.09375 19.296875-43.09375 43.097656s19.296875 43.128906 43.09375 43.128906c23.828125 0 43.121093-19.324219 43.121093-43.128906 0-23.800781-19.292968-43.097656-43.121093-43.097656zm0 0" fill="#ff6977"/><path d="m373.816406 122.410156c0 19.832032 16.09375 35.929688 35.953125 35.929688 15.78125 0 29.210938-10.203125 34.027344-24.371094 1.214844-3.625 1.898437-7.507812 1.898437-11.558594 0-19.863281-16.09375-35.960937-35.925781-35.960937-19.265625 0-34.992187 15.160156-35.898437 34.171875-.027344.597656-.054688 1.191406-.054688 1.789062zm0 0" fill="#91def5"/><path d="m89.898438 389.394531c0-19.867187-16.09375-35.929687-35.953126-35.929687-13.285156 0-24.902343 7.195312-31.109374 17.933594-3.058594 5.300781-4.8125 11.449218-4.8125 17.996093 0 19.863281 16.089843 35.929688 35.921874 35.929688 19.152344 0 34.792969-14.960938 35.871094-33.835938.054688-.679687.082032-1.386719.082032-2.09375zm0 0" fill="#91def5"/></g><path d="m184.304688 255.984375c0 29.339844 23.855468 53.210937 53.175781 53.210937 29.339843 0 53.207031-23.871093 53.207031-53.210937 0-29.324219-23.867188-53.183594-53.207031-53.183594-29.320313 0-53.175781 23.859375-53.175781 53.183594zm86.214843 0c0 18.21875-14.820312 33.042969-33.039062 33.042969-18.199219 0-33.007813-14.824219-33.007813-33.042969 0-18.203125 14.808594-33.011719 33.007813-33.011719 18.21875 0 33.039062 14.808594 33.039062 33.011719zm0 0"/><path d="m431.054688 260.15625c-1.472657-1.527344-2.988282-3.054688-4.519532-4.578125 1.527344-1.53125 3.035156-3.066406 4.503906-4.601563 37.492188-39.265624 51.144532-75.902343 38.433594-103.179687-3.226562-6.882813-8.023437-12.914063-14.292968-18.011719.390624-2.402344.601562-4.863281.601562-7.375 0-25.386718-20.640625-46.042968-46.011719-46.042968-21.441406 0-39.503906 14.738281-44.601562 34.613281-12.265625.804687-25.105469 2.40625-38.390625 4.785156-3.503906-13.242187-7.523438-25.746094-12.042969-37.328125-19.738281-50.582031-47.171875-78.4375-77.253906-78.4375-11.71875 0-23.132813 4.226562-33.925781 12.558594-4.410157 3.402344-5.226563 9.734375-1.824219 14.144531 3.40625 4.410156 9.738281 5.222656 14.148437 1.820313 7.179688-5.542969 14.449219-8.355469 21.601563-8.355469 20.886719 0 42.195312 23.910156 58.464843 65.601562 4.125 10.570313 7.808594 21.96875 11.042969 34.042969-22.472656 5.128906-45.941406 12.28125-69.789062 21.285156-23.632813-8.785156-46.957031-15.78125-69.300781-20.8125 2.507812-9.425781 5.289062-18.4375 8.332031-26.953125 1.875-5.246093-.855469-11.015625-6.101563-12.890625-5.238281-1.875-11.015625.855469-12.890625 6.101563-3.355469 9.386719-6.402343 19.34375-9.132812 29.757812-13.699219-2.417969-26.925781-4.03125-39.507813-4.785156-54.1875-3.242187-90.972656 10.011719-103.558594 37.332031-12.589843 27.304688 1.222657 63.878906 38.894532 102.984375 1.472656 1.53125 2.988281 3.054688 4.523437 4.582031-1.527343 1.53125-3.035156 3.066407-4.503906 4.601563-37.492187 39.269531-51.148437 75.910156-38.441406 103.171875 1.453125 3.117188 3.273437 6.089844 5.417969 8.902344-1.925782 5.070312-2.992188 10.5625-2.992188 16.304687 0 25.371094 20.636719 46.011719 46.007812 46.011719 21.1875 0 39.066407-14.382812 44.40625-33.890625 15.511719-.363281 32.261719-2.1875 49.847657-5.355469 3.503906 13.269532 7.527343 25.789063 12.050781 37.386719 19.738281 50.589844 47.164062 78.453125 77.230469 78.453125 30.082031 0 57.515625-27.863281 77.253906-78.453125 4.578125-11.734375 8.648437-24.414063 12.183594-37.855469 14.746093 2.597656 28.953125 4.269532 42.402343 4.933594.171876.007812.339844.015625.507813.015625 5.339844 0 9.796875-4.195313 10.066406-9.589844.273438-5.5625-4.011719-10.292969-9.578125-10.570312-12.285156-.609375-25.253906-2.101563-38.734375-4.429688 3.695313-17.292969 6.574219-35.605469 8.574219-54.628906 27.046875-16.261719 51.34375-33.863281 71.703125-51.992187 1.585937 1.570312 3.152344 3.144531 4.671875 4.71875 31.050781 32.230468 43.84375 61.589843 35.097656 80.574218-2.210937 4.8125-5.910156 9.089844-10.996094 12.710938-4.535156 3.230468-5.59375 9.53125-2.359374 14.066406 3.230468 4.535156 9.527343 5.59375 14.0625 2.363281 7.996093-5.695312 13.921874-12.667969 17.617187-20.710937 12.589844-27.320313-1.226563-63.894532-38.898437-102.996094zm-21.285157-163.621094c14.246094 0 25.839844 11.605469 25.839844 25.875 0 14.25-11.59375 25.84375-25.839844 25.84375-14.265625 0-25.871093-11.59375-25.871093-25.84375 0-.347656.015624-.691406.027343-1.035156.007813-.125.007813-.253906.015625-.378906.734375-13.613282 12.039063-24.460938 25.828125-24.460938zm-45.179687 34.703125c4.132812 21.160157 22.8125 37.183594 45.179687 37.183594 15.175781 0 28.65625-7.390625 37.042969-18.757813 1.796875 2.078126 3.277344 4.300782 4.386719 6.671876 8.820312 18.925781-3.84375 48.34375-34.75 80.710937-1.511719 1.582031-3.070313 3.164063-4.652344 4.742187-20.371094-17.976562-44.65625-35.414062-71.667969-51.503906-2.015625-19.085937-4.914062-37.457031-8.640625-54.792968 11.492188-2.042969 22.574219-3.480469 33.101563-4.253907zm-52.851563 8.277344c2.648438 12.285156 4.863281 25.128906 6.625 38.417969-11.777343-6.367188-23.960937-12.46875-36.484375-18.238282-5.40625-2.496093-10.820312-4.898437-16.230468-7.214843 15.691406-5.203125 31.148437-9.546875 46.089843-12.964844zm11.621094 116.46875c0 18.164063-.773437 36.007813-2.28125 53.285156-15.007813 8.660157-30.839844 16.894531-47.285156 24.566407-12.035157 5.613281-24.097657 10.773437-36.082031 15.464843-11.996094-4.640625-24.078126-9.746093-36.15625-15.3125-16.5625-7.632812-32.503907-15.84375-47.621094-24.480469-1.519532-17.351562-2.300782-35.277343-2.300782-53.523437 0-18.101563.789063-35.957031 2.308594-53.28125 15.003906-8.652344 30.828125-16.882813 47.261719-24.542969 11.992187-5.597656 24.070313-10.753906 36.109375-15.453125 12 4.640625 24.070312 9.742188 36.125 15.304688 16.5625 7.632812 32.507812 15.839843 47.625 24.480469 1.515625 17.34375 2.296875 35.257812 2.296875 53.492187zm-113.953125 103.558594c-15.742188 5.234375-31.203125 9.589843-46.136719 12.996093-2.652343-12.300781-4.871093-25.164062-6.636719-38.472656 11.777344 6.367188 23.960938 12.46875 36.480469 18.242188 5.429688 2.5 10.863281 4.910156 16.292969 7.234375zm-76.648438-62.769531c-20.363281-12.875-38.832031-26.488282-54.785156-40.425782 15.933594-14.050781 34.398438-27.78125 54.773438-40.777344-.847656 13.273438-1.28125 26.78125-1.28125 40.414063 0 13.796875.441406 27.421875 1.292968 40.789063zm76.183594-144.207032c-5.417968 2.351563-10.839844 4.785156-16.265625 7.316406-12.363281 5.765626-24.398437 11.851563-36.03125 18.199219 1.75-13.191406 3.945313-25.96875 6.566407-38.191406 14.835937 3.328125 30.148437 7.570313 45.730468 12.675781zm-150.480468 85.273438c-31.050782-32.230469-43.847657-61.589844-35.105469-80.550782 8.742187-18.96875 39.367187-28.316406 84.039062-25.640624 11.476563.6875 23.546875 2.140624 36.046875 4.304687-3.695312 17.292969-6.570312 35.613281-8.578125 54.597656-27.058593 16.257813-51.367187 33.867188-71.734375 52.007813-1.585937-1.570313-3.148437-3.144532-4.667968-4.71875zm-4.515626 177.398437c-14.246093 0-25.839843-11.59375-25.839843-25.847656 0-14.25 11.59375-25.84375 25.839843-25.84375 14.265626 0 25.871094 11.59375 25.871094 25.84375 0 .246094-.011718.488281-.019531.730469-.007813.183594-.019531.371094-.035156.566406-.011719.15625-.007813.308594-.011719.464844-.910156 13.433594-12.132812 24.085937-25.804688 24.085937zm45.3125-33.921875c-3.832031-21.535156-22.683593-37.9375-45.3125-37.9375-11.671874 0-22.335937 4.378906-30.457031 11.566406-8.1875-18.949218 4.53125-48.035156 35.054688-80.003906 1.511719-1.582031 3.070312-3.164062 4.648437-4.742187 20.375 17.984375 44.660156 35.421875 71.671875 51.515625 2.019531 19.097656 4.921875 37.480468 8.648438 54.828125-15.601563 2.757812-30.453125 4.375-44.253907 4.773437zm196.6875 44.898438c-16.269531 41.699218-37.578124 65.617187-58.464843 65.617187-20.871094 0-42.171875-23.917969-58.4375-65.613281-4.128907-10.589844-7.820313-22.011719-11.058594-34.109375 22.449219-5.132813 45.953125-12.269531 69.761719-21.226563 23.671875 8.800782 47.011718 15.8125 69.363281 20.839844-3.265625 12.242188-6.988281 23.792969-11.164063 34.492188zm15.867188-54.097656c-14.84375-3.324219-30.171875-7.578126-45.777344-12.691407 5.429688-2.351562 10.859375-4.78125 16.28125-7.308593 12.375-5.773438 24.421875-11.871094 36.0625-18.222657-1.746094 13.214844-3.941406 25.996094-6.566406 38.222657zm30.441406-75.703126c.839844-13.25 1.273438-26.757812 1.273438-40.429687 0-13.785156-.441406-27.402344-1.292969-40.761719 20.363281 12.875 38.828125 26.484375 54.78125 40.421875-15.929687 14.042969-34.390625 27.773438-54.761719 40.769531zm0 0"/><path d="m178.253906 60.441406c1.722656 1.148438 3.664063 1.695313 5.585938 1.695313 3.261718 0 6.457031-1.578125 8.398437-4.492188l.113281-.171875c3.089844-4.632812 1.839844-10.894531-2.796874-13.984375-4.632813-3.089843-10.894532-1.835937-13.984376 2.796875l-.113281.171875c-3.089843 4.632813-1.835937 10.894531 2.796875 13.984375zm0 0"/><path d="m407.945312 379.664062-.199218.027344c-5.511719.789063-9.34375 5.898438-8.554688 11.410156.71875 5.03125 5.03125 8.660157 9.96875 8.660157.472656 0 .957032-.035157 1.441406-.101563l.195313-.027344c5.515625-.789062 9.34375-5.898437 8.558594-11.410156-.789063-5.515625-5.894531-9.351562-11.410157-8.558594zm0 0"/></svg>