<?xml version="1.0" standalone="no"?>
<!DOCTYPE svg PUBLIC "-//W3C//DTD SVG 20010904//EN"
 "http://www.w3.org/TR/2001/REC-SVG-20010904/DTD/svg10.dtd">
<svg version="1.0" xmlns="http://www.w3.org/2000/svg"
 width="700.000000pt" height="700.000000pt" viewBox="0 0 700.000000 700.000000"
 preserveAspectRatio="xMidYMid meet">
<metadata>
Created by potrace 1.11, written by Peter Selinger 2001-2013
</metadata>
<g transform="translate(0.000000,700.000000) scale(0.100000,-0.100000)"
fill="#000000" stroke="none">
<path d="M3415 6993 c-180 -40 -354 -129 -400 -206 -33 -56 -11 -150 43 -184
53 -32 133 -21 187 25 11 10 43 30 70 44 261 136 534 -6 784 -405 40 -65 120
-219 153 -297 82 -190 99 -238 197 -551 l17 -55 -151 -38 c-200 -51 -433 -122
-637 -194 l-168 -60 -157 55 c-204 71 -446 144 -625 188 -79 20 -148 37 -155
40 -13 4 1 56 69 263 45 137 48 176 22 222 -20 34 -79 70 -115 70 -41 0 -106
-39 -122 -73 -20 -43 -83 -233 -106 -321 -28 -105 -29 -107 -60 -101 -29 5
-77 13 -118 20 -16 2 -54 7 -86 10 -32 4 -66 8 -75 10 -17 3 -120 12 -232 20
-80 6 -353 6 -435 0 -205 -16 -439 -72 -584 -141 -399 -188 -543 -529 -405
-959 50 -156 190 -406 307 -549 80 -98 162 -191 225 -258 35 -36 65 -68 65
-71 1 -3 -25 -34 -58 -69 -289 -308 -465 -581 -546 -848 -26 -88 -32 -125 -35
-230 -5 -171 21 -278 101 -405 l31 -50 -17 -57 c-42 -135 -23 -316 47 -450 55
-104 174 -221 274 -270 114 -56 186 -71 310 -66 177 8 324 77 444 209 47 53
112 165 131 227 5 18 14 22 48 23 23 1 56 2 72 4 133 10 215 17 240 21 17 2
53 6 80 9 28 3 61 7 75 10 14 3 39 7 55 9 17 3 51 7 76 11 l45 6 17 -68 c25
-102 98 -322 155 -463 213 -533 486 -876 795 -1000 94 -38 141 -45 272 -44
186 1 351 77 523 239 270 254 480 660 659 1275 22 75 8 71 173 47 170 -25 192
-27 391 -41 105 -8 167 36 176 125 5 49 -18 96 -60 124 -31 20 -42 22 -158 30
-105 7 -125 9 -289 31 -61 8 -143 23 -147 28 -2 2 1 25 7 52 17 72 19 80 36
179 8 50 17 101 19 115 3 14 7 45 11 70 3 25 9 70 14 100 5 30 12 87 15 125 9
97 11 102 63 132 194 111 610 408 805 574 55 46 105 89 113 94 11 8 30 -6 82
-60 213 -224 366 -442 442 -628 47 -117 61 -174 65 -264 6 -147 -33 -236 -156
-353 -73 -70 -79 -78 -82 -123 -4 -37 0 -54 17 -79 51 -76 124 -92 198 -43
139 92 244 245 283 412 15 63 23 262 11 281 -2 4 -7 28 -11 52 -26 181 -199
506 -390 735 -53 63 -206 233 -240 266 -3 4 13 27 37 51 63 63 127 135 178
198 25 30 48 57 51 60 15 14 145 202 179 260 137 236 193 412 194 605 0 123
-6 162 -39 252 -32 89 -81 165 -150 235 l-60 61 -1 111 c-1 90 -6 125 -27 184
-95 272 -339 445 -618 436 -173 -5 -325 -76 -447 -209 -55 -61 -122 -176 -136
-237 -5 -24 -12 -28 -44 -29 -20 -1 -48 -2 -62 -4 -14 -1 -59 -5 -100 -9 -41
-4 -82 -9 -90 -11 -8 -2 -37 -6 -65 -10 -27 -3 -68 -10 -90 -15 -78 -18 -80
-17 -100 58 -10 37 -39 132 -65 212 -236 720 -571 1164 -965 1277 -49 14 -230
25 -270 16z m-1615 -1797 c47 -4 96 -9 110 -11 14 -2 54 -7 90 -11 36 -3 74
-8 85 -10 11 -2 36 -6 55 -9 45 -6 82 -14 85 -17 1 -2 -4 -32 -11 -68 -21 -97
-24 -112 -30 -150 -2 -19 -9 -57 -14 -85 -5 -27 -11 -66 -14 -85 -10 -75 -17
-126 -21 -150 -2 -14 -7 -52 -10 -85 -7 -65 -15 -119 -18 -121 -1 -1 -40 -25
-87 -54 -89 -56 -341 -221 -350 -230 -3 -3 -45 -34 -95 -69 -79 -57 -298 -230
-408 -323 l-39 -33 -86 90 c-323 340 -505 682 -489 920 6 92 23 145 68 212
103 155 366 264 697 289 48 3 88 7 90 9 5 4 306 -3 392 -9z m3466 -45 c36
-124 140 -271 241 -340 43 -29 142 -77 178 -86 105 -25 172 -31 254 -22 143
16 273 80 376 185 58 59 63 61 78 44 9 -10 28 -44 44 -77 71 -156 27 -388
-121 -640 -42 -71 -169 -252 -186 -265 -3 -3 -38 -41 -76 -85 -112 -130 -152
-168 -166 -159 -7 4 -44 35 -83 67 -38 33 -80 68 -92 78 -19 16 -242 182 -333
248 -63 46 -294 197 -378 247 -45 27 -84 56 -86 64 -3 8 -8 44 -11 80 -4 36
-8 76 -10 90 -2 14 -7 48 -10 75 -9 73 -43 275 -66 389 -10 55 -18 100 -16
102 3 3 91 17 177 29 25 3 56 8 70 10 14 2 57 7 95 10 39 4 71 8 73 9 1 2 9 3
17 3 9 0 20 -21 31 -56z m-2376 -165 c25 -8 87 -26 138 -42 l93 -28 -92 -43
c-50 -24 -93 -43 -96 -43 -6 0 -430 -213 -476 -238 -21 -12 -40 -22 -43 -22
-8 0 37 294 65 425 23 106 -3 100 193 49 95 -24 193 -51 218 -58z m1650 52
c11 -54 54 -297 66 -378 13 -90 13 -89 -4 -83 -10 3 -21 10 -27 14 -21 16
-416 209 -530 259 -66 29 -124 56 -129 60 -13 12 526 173 601 179 6 1 16 -23
23 -51z m-560 -461 c161 -73 456 -222 595 -300 54 -29 80 -50 81 -63 1 -10 4
-50 8 -89 26 -298 27 -1000 1 -1235 -1 -14 -3 -46 -4 -71 l-1 -46 -157 -86
c-153 -83 -516 -267 -527 -267 -3 0 -36 -14 -73 -31 -119 -55 -147 -67 -213
-94 -36 -14 -78 -32 -95 -40 -73 -33 -94 -30 -242 36 -24 11 -45 19 -48 19 -2
0 -28 11 -57 24 -29 13 -87 38 -128 56 -200 86 -731 358 -745 380 -6 10 -12
78 -23 270 -19 334 -1 1164 26 1192 25 25 536 287 712 365 25 11 66 30 91 41
39 18 255 108 313 131 22 8 225 -72 486 -192z m-1907 -699 c-9 -219 -9 -555 0
-765 3 -90 4 -163 1 -163 -12 0 -310 205 -433 297 -156 118 -300 235 -301 245
-1 25 323 279 584 457 82 55 151 101 152 101 2 0 0 -78 -3 -172z m3036 72
c207 -139 554 -404 576 -439 12 -20 -305 -270 -578 -456 l-158 -107 7 203 c9
255 9 476 0 692 -4 93 -7 172 -7 175 -2 15 1 32 7 32 3 0 72 -45 153 -100z
m-3864 -741 c206 -172 479 -368 715 -514 69 -43 130 -83 137 -89 13 -12 18
-35 28 -126 6 -57 42 -310 49 -346 3 -12 7 -37 10 -55 3 -19 14 -77 25 -129
11 -52 19 -96 18 -97 -1 0 -20 -4 -42 -7 -22 -4 -47 -8 -55 -11 -8 -2 -36 -6
-62 -9 -120 -15 -145 -18 -168 -21 -13 -3 -81 -8 -151 -11 l-126 -7 -12 49
c-82 328 -430 533 -762 449 -72 -18 -166 -64 -220 -106 -20 -16 -39 -29 -42
-29 -9 0 -30 110 -32 165 -6 171 104 421 293 670 83 109 267 315 281 315 3 0
56 -41 116 -91z m1743 -1063 c56 -25 106 -46 111 -46 6 0 12 -4 16 -10 3 -5
-25 -19 -62 -30 -83 -26 -247 -75 -288 -85 -16 -5 -34 -9 -40 -11 -116 -31
-185 -47 -205 -48 -26 -1 -24 -6 -45 113 -4 18 -9 43 -11 55 -18 94 -53 312
-54 338 0 4 107 -47 238 -112 130 -65 283 -139 340 -164z m1626 252 c-17 -119
-57 -355 -70 -414 l-16 -72 -61 14 c-78 18 -226 58 -337 91 -47 14 -94 27
-105 30 -11 2 -29 8 -40 13 -11 5 -33 12 -50 16 -28 6 -24 10 70 53 55 25 213
103 350 172 138 70 253 127 257 128 3 0 4 -14 2 -31z m-998 -504 c231 -83 545
-178 747 -225 l98 -23 -6 -36 c-4 -19 -15 -60 -25 -90 -9 -30 -31 -98 -48
-150 -122 -379 -298 -706 -480 -894 -325 -335 -662 -244 -977 264 -123 199
-254 516 -339 816 l-23 82 91 23 c233 56 777 225 834 259 23 13 18 14 128 -26z"/>
<path d="M3385 4215 c-423 -77 -688 -501 -570 -910 73 -254 266 -441 526 -511
87 -23 261 -23 349 0 443 119 673 601 482 1011 -141 301 -464 469 -787 410z"/>
<path d="M2720 6413 c-71 -37 -97 -141 -52 -203 24 -32 78 -60 118 -60 70 0
139 81 130 153 -11 98 -112 154 -196 110z"/>
<path d="M5805 1796 c-114 -51 -102 -221 19 -254 41 -12 100 0 130 26 116 104
-6 291 -149 228z"/>
</g>
</svg>
